<?xml version="1.0" standalone="no"?>
<!DOCTYPE svg PUBLIC "-//W3C//DTD SVG 20010904//EN"
 "http://www.w3.org/TR/2001/REC-SVG-20010904/DTD/svg10.dtd">
<svg version="1.0" xmlns="http://www.w3.org/2000/svg"
 width="100.000000pt" height="100.000000pt" viewBox="0 0 100.000000 100.000000"
 preserveAspectRatio="xMidYMid meet">

<g transform="translate(0.000000,100.000000) scale(0.100000,-0.100000)"
fill="#000000" stroke="none">
<path d="M390 981 c-101 -26 -159 -60 -235 -136 -82 -81 -118 -149 -142 -265
-16 -75 -16 -85 0 -160 24 -116 60 -184 142 -265 82 -82 150 -119 265 -142 73
-15 87 -15 160 0 115 23 183 60 265 142 82 82 119 150 142 265 15 73 15 87 0
160 -23 115 -60 183 -142 265 -78 78 -143 115 -249 139 -83 20 -123 19 -206
-3z m220 -256 c130 -74 120 -53 120 -240 l0 -162 -25 -11 -25 -12 0 108 c0 59
-4 112 -8 118 -4 6 -51 37 -106 70 l-98 61 0 60 c0 76 6 89 35 70 12 -8 60
-36 107 -62z m-62 -170 l82 -48 0 -122 c0 -120 0 -122 -25 -133 l-25 -12 0 64
c0 73 2 71 -122 145 l-88 52 0 68 c0 37 3 71 7 74 3 4 25 -4 47 -17 23 -13 78
-45 124 -71z m-163 -117 c153 -87 145 -79 145 -159 0 -59 -2 -69 -17 -69 -10
0 -67 31 -128 69 l-110 68 -3 71 c-2 53 0 72 10 72 7 0 53 -23 103 -52z"/>
</g>
</svg>
